<?xml version="1.0" encoding="utf-8"?>
<!-- Generator: Adobe Illustrator 27.5.0, SVG Export Plug-In . SVG Version: 6.00 Build 0)  -->
<svg version="1.1" id="Layer_1" xmlns="http://www.w3.org/2000/svg" xmlns:xlink="http://www.w3.org/1999/xlink" x="0px" y="0px"
	 viewBox="0 0 512 512" style="enable-background:new 0 0 512 512;" xml:space="preserve">
<g>
	<path d="M192,32c0,17.7,14.3,32,32,32c123.7,0,224,100.3,224,224c0,17.7,14.3,32,32,32s32-14.3,32-32C512,128.9,383.1,0,224,0
		C206.3,0,192,14.3,192,32z M192,128c0,17.7,14.3,32,32,32c70.7,0,128,57.3,128,128c0,17.7,14.3,32,32,32s32-14.3,32-32
		c0-106-86-192-192-192C206.3,96,192,110.3,192,128z M96,144c0-26.5-21.5-48-48-48S0,117.5,0,144v224c0,79.5,64.5,144,144,144
		s144-64.5,144-144s-64.5-144-144-144h-16v96h16c26.5,0,48,21.5,48,48s-21.5,48-48,48s-48-21.5-48-48V144z"/>
</g>
</svg>
